<svg id="my-svg" width="100%" xmlns="http://www.w3.org/2000/svg" xmlns:xlink="http://www.w3.org/1999/xlink" class="classDiagram" style="max-width: 915.363px; background-color: transparent;" viewBox="0 0 915.36328125 478" role="graphics-document document" aria-roledescription="class"><style>#my-svg{font-family:"trebuchet ms",verdana,arial,sans-serif;font-size:16px;fill:#333;}@keyframes edge-animation-frame{from{stroke-dashoffset:0;}}@keyframes dash{to{stroke-dashoffset:0;}}#my-svg .edge-animation-slow{stroke-dasharray:9,5!important;stroke-dashoffset:900;animation:dash 50s linear infinite;stroke-linecap:round;}#my-svg .edge-animation-fast{stroke-dasharray:9,5!important;stroke-dashoffset:900;animation:dash 20s linear infinite;stroke-linecap:round;}#my-svg .error-icon{fill:#552222;}#my-svg .error-text{fill:#552222;stroke:#552222;}#my-svg .edge-thickness-normal{stroke-width:1px;}#my-svg .edge-thickness-thick{stroke-width:3.5px;}#my-svg .edge-pattern-solid{stroke-dasharray:0;}#my-svg .edge-thickness-invisible{stroke-width:0;fill:none;}#my-svg .edge-pattern-dashed{stroke-dasharray:3;}#my-svg .edge-pattern-dotted{stroke-dasharray:2;}#my-svg .marker{fill:#333333;stroke:#333333;}#my-svg .marker.cross{stroke:#333333;}#my-svg svg{font-family:"trebuchet ms",verdana,arial,sans-serif;font-size:16px;}#my-svg p{margin:0;}#my-svg g.classGroup text{fill:#9370DB;stroke:none;font-family:"trebuchet ms",verdana,arial,sans-serif;font-size:10px;}#my-svg g.classGroup text .title{font-weight:bolder;}#my-svg .cluster-label text{fill:#333;}#my-svg .cluster-label span{color:#333;}#my-svg .cluster-label span p{background-color:transparent;}#my-svg .cluster rect{fill:#ffffde;stroke:#aaaa33;stroke-width:1px;}#my-svg .cluster text{fill:#333;}#my-svg .cluster span{color:#333;}#my-svg .nodeLabel,#my-svg .edgeLabel{color:#131300;}#my-svg .noteLabel .nodeLabel,#my-svg .noteLabel .edgeLabel{color:black;}#my-svg .edgeLabel .label rect{fill:#ECECFF;}#my-svg .label text{fill:#131300;}#my-svg .labelBkg{background:#ECECFF;}#my-svg .edgeLabel .label span{background:#ECECFF;}#my-svg .classTitle{font-weight:bolder;}#my-svg .node rect,#my-svg .node circle,#my-svg .node ellipse,#my-svg .node polygon,#my-svg .node path{fill:#ECECFF;stroke:#9370DB;stroke-width:1;}#my-svg .divider{stroke:#9370DB;stroke-width:1;}#my-svg g.clickable{cursor:pointer;}#my-svg g.classGroup rect{fill:#ECECFF;stroke:#9370DB;}#my-svg g.classGroup line{stroke:#9370DB;stroke-width:1;}#my-svg .classLabel .box{stroke:none;stroke-width:0;fill:#ECECFF;opacity:0.5;}#my-svg .classLabel .label{fill:#9370DB;font-size:10px;}#my-svg .relation{stroke:#333333;stroke-width:1;fill:none;}#my-svg .dashed-line{stroke-dasharray:3;}#my-svg .dotted-line{stroke-dasharray:1 2;}#my-svg [id$="-compositionStart"],#my-svg .composition{fill:#333333!important;stroke:#333333!important;stroke-width:1;}#my-svg [id$="-compositionEnd"],#my-svg .composition{fill:#333333!important;stroke:#333333!important;stroke-width:1;}#my-svg [id$="-dependencyStart"],#my-svg .dependency{fill:#333333!important;stroke:#333333!important;stroke-width:1;}#my-svg [id$="-dependencyEnd"],#my-svg .dependency{fill:#333333!important;stroke:#333333!important;stroke-width:1;}#my-svg [id$="-extensionStart"],#my-svg .extension{fill:transparent!important;stroke:#333333!important;stroke-width:1;}#my-svg [id$="-extensionEnd"],#my-svg .extension{fill:transparent!important;stroke:#333333!important;stroke-width:1;}#my-svg [id$="-aggregationStart"],#my-svg .aggregation{fill:transparent!important;stroke:#333333!important;stroke-width:1;}#my-svg [id$="-aggregationEnd"],#my-svg .aggregation{fill:transparent!important;stroke:#333333!important;stroke-width:1;}#my-svg [id$="-lollipopStart"],#my-svg .lollipop{fill:#ECECFF!important;stroke:#333333!important;stroke-width:1;}#my-svg [id$="-lollipopEnd"],#my-svg .lollipop{fill:#ECECFF!important;stroke:#333333!important;stroke-width:1;}#my-svg .edgeTerminals{font-size:11px;line-height:initial;}#my-svg .classTitleText{text-anchor:middle;font-size:18px;fill:#333;}#my-svg .edgeLabel[data-look="neo"]{background-color:rgba(232,232,232, 0.8);text-align:center;}#my-svg .edgeLabel[data-look="neo"] p{background-color:rgba(232,232,232, 0.8);}#my-svg .edgeLabel[data-look="neo"] rect{opacity:0.5;background-color:rgba(232,232,232, 0.8);fill:rgba(232,232,232, 0.8);}#my-svg .label-icon{display:inline-block;height:1em;overflow:visible;vertical-align:-0.125em;}#my-svg .node .label-icon path{fill:currentColor;stroke:revert;stroke-width:revert;}#my-svg .node .neo-node{stroke:#9370DB;}#my-svg [data-look="neo"].node rect,#my-svg [data-look="neo"].cluster rect,#my-svg [data-look="neo"].node polygon{stroke:#9370DB;filter:drop-shadow(1px 2px 2px rgba(185, 185, 185, 1));}#my-svg [data-look="neo"].node path{stroke:#9370DB;stroke-width:1px;}#my-svg [data-look="neo"].node .outer-path{filter:drop-shadow(1px 2px 2px rgba(185, 185, 185, 1));}#my-svg [data-look="neo"].node .neo-line path{stroke:#9370DB;filter:none;}#my-svg [data-look="neo"].node circle{stroke:#9370DB;filter:drop-shadow(1px 2px 2px rgba(185, 185, 185, 1));}#my-svg [data-look="neo"].node circle .state-start{fill:#000000;}#my-svg [data-look="neo"].icon-shape .icon{fill:#9370DB;filter:drop-shadow(1px 2px 2px rgba(185, 185, 185, 1));}#my-svg [data-look="neo"].icon-shape .icon-neo path{stroke:#9370DB;filter:drop-shadow(1px 2px 2px rgba(185, 185, 185, 1));}#my-svg :root{--mermaid-font-family:"trebuchet ms",verdana,arial,sans-serif;}</style><g><defs><marker id="my-svg_class-aggregationStart" class="marker aggregation class" refX="18" refY="7" markerWidth="190" markerHeight="240" orient="auto"><path d="M 18,7 L9,13 L1,7 L9,1 Z"/></marker></defs><defs><marker id="my-svg_class-aggregationEnd" class="marker aggregation class" refX="1" refY="7" markerWidth="20" markerHeight="28" orient="auto"><path d="M 18,7 L9,13 L1,7 L9,1 Z"/></marker></defs><defs><marker id="my-svg_class-aggregationStart-margin" class="marker aggregation class" refX="15" refY="7" markerWidth="190" markerHeight="240" orient="auto" markerUnits="userSpaceOnUse"><path d="M 18,7 L9,13 L1,7 L9,1 Z" style="stroke-width: 2;"/></marker></defs><defs><marker id="my-svg_class-aggregationEnd-margin" class="marker aggregation class" refX="1" refY="7" markerWidth="20" markerHeight="28" orient="auto" markerUnits="userSpaceOnUse"><path d="M 18,7 L9,13 L1,7 L9,1 Z" style="stroke-width: 2;"/></marker></defs><defs><marker id="my-svg_class-extensionStart" class="marker extension class" refX="18" refY="7" markerWidth="20" markerHeight="28" orient="auto" markerUnits="userSpaceOnUse"><path d="M 1,7 L18,13 V 1 Z"/></marker></defs><defs><marker id="my-svg_class-extensionEnd" class="marker extension class" refX="1" refY="7" markerWidth="20" markerHeight="28" orient="auto"><path d="M 1,1 V 13 L18,7 Z"/></marker></defs><marker id="my-svg_class-extensionStart-margin" class="marker extension class" refX="18" refY="7" markerWidth="20" markerHeight="28" orient="auto" markerUnits="userSpaceOnUse" viewBox="0 0 20 14"><polygon points="10,7 18,13 18,1" style="stroke-width: 2; stroke-dasharray: 0;"/></marker><defs><marker id="my-svg_class-extensionEnd-margin" class="marker extension class" refX="9" refY="7" markerWidth="20" markerHeight="28" orient="auto" markerUnits="userSpaceOnUse" viewBox="0 0 20 14"><polygon points="10,1 10,13 18,7" style="stroke-width: 2; stroke-dasharray: 0;"/></marker></defs><defs><marker id="my-svg_class-compositionStart" class="marker composition class" refX="18" refY="7" markerWidth="190" markerHeight="240" orient="auto"><path d="M 18,7 L9,13 L1,7 L9,1 Z"/></marker></defs><defs><marker id="my-svg_class-compositionEnd" class="marker composition class" refX="1" refY="7" markerWidth="20" markerHeight="28" orient="auto"><path d="M 18,7 L9,13 L1,7 L9,1 Z"/></marker></defs><defs><marker id="my-svg_class-compositionStart-margin" class="marker composition class" refX="15" refY="7" markerWidth="190" markerHeight="240" orient="auto" markerUnits="userSpaceOnUse"><path viewBox="0 0 15 15" d="M 18,7 L9,13 L1,7 L9,1 Z" style="stroke-width: 0;"/></marker></defs><defs><marker id="my-svg_class-compositionEnd-margin" class="marker composition class" refX="3.5" refY="7" markerWidth="20" markerHeight="28" orient="auto" markerUnits="userSpaceOnUse"><path d="M 18,7 L9,13 L1,7 L9,1 Z" style="stroke-width: 0;"/></marker></defs><defs><marker id="my-svg_class-dependencyStart" class="marker dependency class" refX="6" refY="7" markerWidth="190" markerHeight="240" orient="auto"><path d="M 5,7 L9,13 L1,7 L9,1 Z"/></marker></defs><defs><marker id="my-svg_class-dependencyEnd" class="marker dependency class" refX="13" refY="7" markerWidth="20" markerHeight="28" orient="auto"><path d="M 18,7 L9,13 L14,7 L9,1 Z"/></marker></defs><defs><marker id="my-svg_class-dependencyStart-margin" class="marker dependency class" refX="4" refY="7" markerWidth="190" markerHeight="240" orient="auto" markerUnits="userSpaceOnUse"><path d="M 5,7 L9,13 L1,7 L9,1 Z" style="stroke-width: 0;"/></marker></defs><defs><marker id="my-svg_class-dependencyEnd-margin" class="marker dependency class" refX="16" refY="7" markerWidth="20" markerHeight="28" orient="auto" markerUnits="userSpaceOnUse"><path d="M 18,7 L9,13 L14,7 L9,1 Z" style="stroke-width: 0;"/></marker></defs><defs><marker id="my-svg_class-lollipopStart" class="marker lollipop class" refX="13" refY="7" markerWidth="190" markerHeight="240" orient="auto"><circle fill="transparent" cx="7" cy="7" r="6"/></marker></defs><defs><marker id="my-svg_class-lollipopEnd" class="marker lollipop class" refX="1" refY="7" markerWidth="190" markerHeight="240" orient="auto"><circle fill="transparent" cx="7" cy="7" r="6"/></marker></defs><defs><marker id="my-svg_class-lollipopStart-margin" class="marker lollipop class" refX="13" refY="7" markerWidth="190" markerHeight="240" orient="auto" markerUnits="userSpaceOnUse"><circle fill="transparent" cx="7" cy="7" r="6" stroke-width="2"/></marker></defs><defs><marker id="my-svg_class-lollipopEnd-margin" class="marker lollipop class" refX="1" refY="7" markerWidth="190" markerHeight="240" orient="auto" markerUnits="userSpaceOnUse"><circle fill="transparent" cx="7" cy="7" r="6" stroke-width="2"/></marker></defs><g class="root"><g class="clusters"/><g class="edgePaths"><path d="M509.93,35.468L437.941,43.057C365.953,50.645,221.977,65.823,149.988,91.578C78,117.333,78,153.667,78,190C78,226.333,78,262.667,78,284C78,305.333,78,311.667,78,314.833L78,318" id="my-svg-id_KIKAKU_TECHO_1" class="edge-thickness-normal edge-pattern-solid relation" style=";;;" data-edge="true" data-et="edge" data-id="id_KIKAKU_TECHO_1" data-points="W3sieCI6NTA5LjkyOTY4NzUsInkiOjM1LjQ2Nzk5ODkyNDMzMzU5fSx7IngiOjc4LCJ5Ijo4MX0seyJ4Ijo3OCwieSI6MTkwfSx7IngiOjc4LCJ5IjoyOTl9LHsieCI6NzgsInkiOjMyNH1d" data-look="classic" marker-end="url(#my-svg_class-dependencyEnd)"/><path d="M575.727,37.528L618.85,44.773C661.973,52.018,748.219,66.509,791.342,86.921C834.465,107.333,834.465,133.667,834.465,146.833L834.465,160" id="my-svg-id_KIKAKU_UNYO_2" class="edge-thickness-normal edge-pattern-solid relation" style=";;;" data-edge="true" data-et="edge" data-id="id_KIKAKU_UNYO_2" data-points="W3sieCI6NTc1LjcyNjU2MjUsInkiOjM3LjUyNzUwNTA1NjMyMjc0NX0seyJ4Ijo4MzQuNDY0ODQzNzUsInkiOjgxfSx7IngiOjgzNC40NjQ4NDM3NSwieSI6MTY2fV0=" data-look="classic" marker-end="url(#my-svg_class-dependencyEnd)"/><path d="M535.927,56L534.729,60.167C533.531,64.333,531.135,72.667,529.936,80C528.738,87.333,528.738,93.667,528.738,96.833L528.738,100" id="my-svg-id_KIKAKU_YAKKYOKU_3" class="edge-thickness-normal edge-pattern-solid relation" style=";;;" data-edge="true" data-et="edge" data-id="id_KIKAKU_YAKKYOKU_3" data-points="W3sieCI6NTM1LjkyNjk3NzA0MDgxNjQsInkiOjU2fSx7IngiOjUyOC43MzgyODEyNSwieSI6ODF9LHsieCI6NTI4LjczODI4MTI1LCJ5IjoxMDZ9XQ==" data-look="classic" marker-end="url(#my-svg_class-dependencyEnd)"/><path d="M383.41,245.661L360.199,254.551C336.988,263.441,290.566,281.22,267.355,293.277C244.145,305.333,244.145,311.667,244.145,314.833L244.145,318" id="my-svg-id_YAKKYOKU_TECHODB_4" class="edge-thickness-normal edge-pattern-solid relation" style=";;;" data-edge="true" data-et="edge" data-id="id_YAKKYOKU_TECHODB_4" data-points="W3sieCI6MzgzLjQxMDE1NjI1LCJ5IjoyNDUuNjYwOTc1MDc0MTE4ODJ9LHsieCI6MjQ0LjE0NDUzMTI1LCJ5IjoyOTl9LHsieCI6MjQ0LjE0NDUzMTI1LCJ5IjozMjR9XQ==" data-look="classic" marker-end="url(#my-svg_class-dependencyEnd)"/><path d="M420.361,274L414.985,278.167C409.609,282.333,398.857,290.667,393.481,298C388.105,305.333,388.105,311.667,388.105,314.833L388.105,318" id="my-svg-id_YAKKYOKU_YAKUREKI_5" class="edge-thickness-normal edge-pattern-solid relation" style=";;;" data-edge="true" data-et="edge" data-id="id_YAKKYOKU_YAKUREKI_5" data-points="W3sieCI6NDIwLjM2MDcwMDk3NDc3MDYsInkiOjI3NH0seyJ4IjozODguMTA1NDY4NzUsInkiOjI5OX0seyJ4IjozODguMTA1NDY4NzUsInkiOjMyNH1d" data-look="classic" marker-end="url(#my-svg_class-dependencyEnd)"/><path d="M534.259,274L534.533,278.167C534.807,282.333,535.355,290.667,535.628,298C535.902,305.333,535.902,311.667,535.902,314.833L535.902,318" id="my-svg-id_YAKKYOKU_HAISHIN_6" class="edge-thickness-normal edge-pattern-solid relation" style=";;;" data-edge="true" data-et="edge" data-id="id_YAKKYOKU_HAISHIN_6" data-points="W3sieCI6NTM0LjI1OTIxMDE0OTA4MjYsInkiOjI3NH0seyJ4Ijo1MzUuOTAyMzQzNzUsInkiOjI5OX0seyJ4Ijo1MzUuOTAyMzQzNzUsInkiOjMyNH1d" data-look="classic" marker-end="url(#my-svg_class-dependencyEnd)"/><path d="M69.653,388.902L69.377,390.251C69.102,391.601,68.551,394.301,68.275,399.817C68,405.333,68,413.667,68,417.833L68,422" id="my-svg-id_TECHO_USER_7" class="edge-thickness-normal edge-pattern-solid relation" style=";;;" data-edge="true" data-et="edge" data-id="id_TECHO_USER_7" data-points="W3sieCI6NzMuMTAyMDQwODE2MzI2NTQsInkiOjM3Mn0seyJ4Ijo2OCwieSI6Mzk3fSx7IngiOjY4LCJ5Ijo0MjJ9XQ==" data-look="classic" marker-start="url(#my-svg_class-extensionStart)"/><path d="M614.635,286.909L616.421,288.924C618.207,290.939,621.779,294.97,634.251,301.203C646.723,307.437,668.094,315.875,678.779,320.093L689.465,324.312" id="my-svg-id_YAKKYOKU_PHARM_8" class="edge-thickness-normal edge-pattern-solid relation" style=";;;" data-edge="true" data-et="edge" data-id="id_YAKKYOKU_PHARM_8" data-points="W3sieCI6NjAzLjE5MjU1MzAzODk5MDgsInkiOjI3NH0seyJ4Ijo2MjUuMzUxNTYyNSwieSI6Mjk5fSx7IngiOjY4OS40NjQ4NDM3NSwieSI6MzI0LjMxMTk2Mjk4NzQ0MjE0fV0=" data-look="classic" marker-start="url(#my-svg_class-extensionStart)"/><path d="M817.115,229.814L812.09,241.345C807.065,252.876,797.015,275.938,788.801,291.636C780.587,307.333,774.21,315.667,771.021,319.833L767.832,324" id="my-svg-id_UNYO_PHARM_9" class="edge-thickness-normal edge-pattern-solid relation" style=";;;" data-edge="true" data-et="edge" data-id="id_UNYO_PHARM_9" data-points="W3sieCI6ODI0LjAwNjEyODE1MzY2OTcsInkiOjIxNH0seyJ4Ijo3ODYuOTY0ODQzNzUsInkiOjI5OX0seyJ4Ijo3NjcuODMyMTkwNjg4Nzc1NSwieSI6MzI0fV0=" data-look="classic" marker-start="url(#my-svg_class-extensionStart)"/><path d="M117.264,372L124.081,376.167C130.897,380.333,144.531,388.667,174.602,398.271C204.674,407.875,251.183,418.751,274.438,424.189L297.693,429.626" id="my-svg-id_TECHO_DATALAKE_10" class="edge-thickness-normal edge-pattern-dashed relation" style=";;;" data-edge="true" data-et="edge" data-id="id_TECHO_DATALAKE_10" data-points="W3sieCI6MTE3LjI2NDAzMDYxMjI0NDksInkiOjM3Mn0seyJ4IjoxNTguMTY0MDYyNSwieSI6Mzk3fSx7IngiOjMwMy41MzUxNTYyNSwieSI6NDMwLjk5MjYzNjc3ODgyMzc0fV0=" data-look="classic" marker-end="url(#my-svg_class-dependencyEnd)"/><path d="M244.145,372L244.145,376.167C244.145,380.333,244.145,388.667,253.723,396.631C263.301,404.596,282.457,412.192,292.035,415.99L301.613,419.788" id="my-svg-id_TECHODB_DATALAKE_11" class="edge-thickness-normal edge-pattern-dashed relation" style=";;;" data-edge="true" data-et="edge" data-id="id_TECHODB_DATALAKE_11" data-points="W3sieCI6MjQ0LjE0NDUzMTI1LCJ5IjozNzJ9LHsieCI6MjQ0LjE0NDUzMTI1LCJ5IjozOTd9LHsieCI6MzA3LjE5MDYwOTA1NjEyMjQ3LCJ5Ijo0MjJ9XQ==" data-look="classic" marker-end="url(#my-svg_class-dependencyEnd)"/><path d="M388.105,372L388.105,376.167C388.105,380.333,388.105,388.667,386.756,396.077C385.406,403.487,382.707,409.974,381.357,413.217L380.007,416.46" id="my-svg-id_YAKUREKI_DATALAKE_12" class="edge-thickness-normal edge-pattern-dashed relation" style=";;;" data-edge="true" data-et="edge" data-id="id_YAKUREKI_DATALAKE_12" data-points="W3sieCI6Mzg4LjEwNTQ2ODc1LCJ5IjozNzJ9LHsieCI6Mzg4LjEwNTQ2ODc1LCJ5IjozOTd9LHsieCI6Mzc3LjcwMjA4ODY0Nzk1OTE2LCJ5Ijo0MjJ9XQ==" data-look="classic" marker-end="url(#my-svg_class-dependencyEnd)"/><path d="M535.902,372L535.902,376.167C535.902,380.333,535.902,388.667,519.528,397.604C503.153,406.541,470.404,416.082,454.03,420.853L437.655,425.624" id="my-svg-id_HAISHIN_DATALAKE_13" class="edge-thickness-normal edge-pattern-dashed relation" style=";;;" data-edge="true" data-et="edge" data-id="id_HAISHIN_DATALAKE_13" data-points="W3sieCI6NTM1LjkwMjM0Mzc1LCJ5IjozNzJ9LHsieCI6NTM1LjkwMjM0Mzc1LCJ5IjozOTd9LHsieCI6NDMxLjg5NDUzMTI1LCJ5Ijo0MjcuMzAxNzkzMDEzNzQ5NTV9XQ==" data-look="classic" marker-end="url(#my-svg_class-dependencyEnd)"/><path d="M674.066,240.172L702.466,249.977C730.866,259.782,787.665,279.391,816.065,297.362C844.465,315.333,844.465,331.667,844.465,348C844.465,364.333,844.465,380.667,776.698,395.798C708.931,410.93,573.397,424.86,505.63,431.825L437.863,438.79" id="my-svg-id_YAKKYOKU_DATALAKE_14" class="edge-thickness-normal edge-pattern-dashed relation" style=";;;" data-edge="true" data-et="edge" data-id="id_YAKKYOKU_DATALAKE_14" data-points="W3sieCI6Njc0LjA2NjQwNjI1LCJ5IjoyNDAuMTcyNDE5NzY1OTE2OX0seyJ4Ijo4NDQuNDY0ODQzNzUsInkiOjI5OX0seyJ4Ijo4NDQuNDY0ODQzNzUsInkiOjM0OH0seyJ4Ijo4NDQuNDY0ODQzNzUsInkiOjM5N30seyJ4Ijo0MzEuODk0NTMxMjUsInkiOjQzOS40MDM2NjA4NTQ3NDU3fV0=" data-look="classic" marker-end="url(#my-svg_class-dependencyEnd)"/></g><g class="edgeLabels"><g class="edgeLabel"><g class="label" data-id="id_KIKAKU_TECHO_1" transform="translate(0, 0)"><foreignObject width="0" height="0"><div xmlns="http://www.w3.org/1999/xhtml" class="labelBkg" style="display: table-cell; white-space: nowrap; line-height: 1.5; max-width: 200px; text-align: center;"><span class="edgeLabel"></span></div></foreignObject></g></g><g class="edgeLabel"><g class="label" data-id="id_KIKAKU_UNYO_2" transform="translate(0, 0)"><foreignObject width="0" height="0"><div xmlns="http://www.w3.org/1999/xhtml" class="labelBkg" style="display: table-cell; white-space: nowrap; line-height: 1.5; max-width: 200px; text-align: center;"><span class="edgeLabel"></span></div></foreignObject></g></g><g class="edgeLabel"><g class="label" data-id="id_KIKAKU_YAKKYOKU_3" transform="translate(0, 0)"><foreignObject width="0" height="0"><div xmlns="http://www.w3.org/1999/xhtml" class="labelBkg" style="display: table-cell; white-space: nowrap; line-height: 1.5; max-width: 200px; text-align: center;"><span class="edgeLabel"></span></div></foreignObject></g></g><g class="edgeLabel"><g class="label" data-id="id_YAKKYOKU_TECHODB_4" transform="translate(0, 0)"><foreignObject width="0" height="0"><div xmlns="http://www.w3.org/1999/xhtml" class="labelBkg" style="display: table-cell; white-space: nowrap; line-height: 1.5; max-width: 200px; text-align: center;"><span class="edgeLabel"></span></div></foreignObject></g></g><g class="edgeLabel"><g class="label" data-id="id_YAKKYOKU_YAKUREKI_5" transform="translate(0, 0)"><foreignObject width="0" height="0"><div xmlns="http://www.w3.org/1999/xhtml" class="labelBkg" style="display: table-cell; white-space: nowrap; line-height: 1.5; max-width: 200px; text-align: center;"><span class="edgeLabel"></span></div></foreignObject></g></g><g class="edgeLabel"><g class="label" data-id="id_YAKKYOKU_HAISHIN_6" transform="translate(0, 0)"><foreignObject width="0" height="0"><div xmlns="http://www.w3.org/1999/xhtml" class="labelBkg" style="display: table-cell; white-space: nowrap; line-height: 1.5; max-width: 200px; text-align: center;"><span class="edgeLabel"></span></div></foreignObject></g></g><g class="edgeLabel"><g class="label" data-id="id_TECHO_USER_7" transform="translate(0, 0)"><foreignObject width="0" height="0"><div xmlns="http://www.w3.org/1999/xhtml" class="labelBkg" style="display: table-cell; white-space: nowrap; line-height: 1.5; max-width: 200px; text-align: center;"><span class="edgeLabel"></span></div></foreignObject></g></g><g class="edgeLabel"><g class="label" data-id="id_YAKKYOKU_PHARM_8" transform="translate(0, 0)"><foreignObject width="0" height="0"><div xmlns="http://www.w3.org/1999/xhtml" class="labelBkg" style="display: table-cell; white-space: nowrap; line-height: 1.5; max-width: 200px; text-align: center;"><span class="edgeLabel"></span></div></foreignObject></g></g><g class="edgeLabel"><g class="label" data-id="id_UNYO_PHARM_9" transform="translate(0, 0)"><foreignObject width="0" height="0"><div xmlns="http://www.w3.org/1999/xhtml" class="labelBkg" style="display: table-cell; white-space: nowrap; line-height: 1.5; max-width: 200px; text-align: center;"><span class="edgeLabel"></span></div></foreignObject></g></g><g class="edgeLabel"><g class="label" data-id="id_TECHO_DATALAKE_10" transform="translate(0, 0)"><foreignObject width="0" height="0"><div xmlns="http://www.w3.org/1999/xhtml" class="labelBkg" style="display: table-cell; white-space: nowrap; line-height: 1.5; max-width: 200px; text-align: center;"><span class="edgeLabel"></span></div></foreignObject></g></g><g class="edgeLabel"><g class="label" data-id="id_TECHODB_DATALAKE_11" transform="translate(0, 0)"><foreignObject width="0" height="0"><div xmlns="http://www.w3.org/1999/xhtml" class="labelBkg" style="display: table-cell; white-space: nowrap; line-height: 1.5; max-width: 200px; text-align: center;"><span class="edgeLabel"></span></div></foreignObject></g></g><g class="edgeLabel"><g class="label" data-id="id_YAKUREKI_DATALAKE_12" transform="translate(0, 0)"><foreignObject width="0" height="0"><div xmlns="http://www.w3.org/1999/xhtml" class="labelBkg" style="display: table-cell; white-space: nowrap; line-height: 1.5; max-width: 200px; text-align: center;"><span class="edgeLabel"></span></div></foreignObject></g></g><g class="edgeLabel"><g class="label" data-id="id_HAISHIN_DATALAKE_13" transform="translate(0, 0)"><foreignObject width="0" height="0"><div xmlns="http://www.w3.org/1999/xhtml" class="labelBkg" style="display: table-cell; white-space: nowrap; line-height: 1.5; max-width: 200px; text-align: center;"><span class="edgeLabel"></span></div></foreignObject></g></g><g class="edgeLabel"><g class="label" data-id="id_YAKKYOKU_DATALAKE_14" transform="translate(0, 0)"><foreignObject width="0" height="0"><div xmlns="http://www.w3.org/1999/xhtml" class="labelBkg" style="display: table-cell; white-space: nowrap; line-height: 1.5; max-width: 200px; text-align: center;"><span class="edgeLabel"></span></div></foreignObject></g></g></g><g class="nodes"><g class="node default" id="my-svg-classId-KIKAKU-0" data-look="classic" transform="translate(542.828125, 32)"><g class="basic label-container outer-path"><path d="M-32.8984375 -24 L32.8984375 -24 L32.8984375 24 L-32.8984375 24" stroke="none" stroke-width="0" fill="#ECECFF" style=""/><path d="M-32.8984375 -24 C-19.61633067204609 -24, -6.334223844092179 -24, 32.8984375 -24 M-32.8984375 -24 C-17.440657166901776 -24, -1.9828768338035516 -24, 32.8984375 -24 M32.8984375 -24 C32.8984375 -8.947797318067572, 32.8984375 6.104405363864856, 32.8984375 24 M32.8984375 -24 C32.8984375 -11.815459597582205, 32.8984375 0.36908080483559047, 32.8984375 24 M32.8984375 24 C9.280491586566086 24, -14.337454326867828 24, -32.8984375 24 M32.8984375 24 C12.400942402097403 24, -8.096552695805194 24, -32.8984375 24 M-32.8984375 24 C-32.8984375 7.3985934267566975, -32.8984375 -9.202813146486605, -32.8984375 -24 M-32.8984375 24 C-32.8984375 12.478929016153145, -32.8984375 0.9578580323062909, -32.8984375 -24" stroke="#9370DB" stroke-width="1.3" fill="none" stroke-dasharray="0 0" style=""/></g><g class="annotation-group text" transform="translate(0, 0)"/><g class="label-group text" transform="translate(-20.8984375, 0)"><g class="label" style="font-weight: bolder" transform="translate(0,-12)"><foreignObject width="41.796875" height="24"><div xmlns="http://www.w3.org/1999/xhtml" style="display: table-cell; white-space: nowrap; line-height: 1.5; max-width: 92px; text-align: center;"><span class="nodeLabel markdown-node-label" style=""><p>企画T</p></span></div></foreignObject></g></g><g class="members-group text" transform="translate(-20.8984375, 48)"/><g class="methods-group text" transform="translate(-20.8984375, 78)"/></g><g class="node default" id="my-svg-classId-UNYO-1" data-look="classic" transform="translate(834.46484375, 190)"><g class="basic label-container outer-path"><path d="M-72.8984375 -24 L72.8984375 -24 L72.8984375 24 L-72.8984375 24" stroke="none" stroke-width="0" fill="#ECECFF" style=""/><path d="M-72.8984375 -24 C-36.487695788777614 -24, -0.07695407755522865 -24, 72.8984375 -24 M-72.8984375 -24 C-19.268613761002086 -24, 34.36120997799583 -24, 72.8984375 -24 M72.8984375 -24 C72.8984375 -7.575345948680297, 72.8984375 8.849308102639405, 72.8984375 24 M72.8984375 -24 C72.8984375 -12.354204084643035, 72.8984375 -0.70840816928607, 72.8984375 24 M72.8984375 24 C39.42900104718325 24, 5.959564594366498 24, -72.8984375 24 M72.8984375 24 C15.261859284921947 24, -42.37471893015611 24, -72.8984375 24 M-72.8984375 24 C-72.8984375 7.611315348849978, -72.8984375 -8.777369302300045, -72.8984375 -24 M-72.8984375 24 C-72.8984375 11.494739390669427, -72.8984375 -1.0105212186611467, -72.8984375 -24" stroke="#9370DB" stroke-width="1.3" fill="none" stroke-dasharray="0 0" style=""/></g><g class="annotation-group text" transform="translate(0, 0)"/><g class="label-group text" transform="translate(-60.8984375, 0)"><g class="label" style="font-weight: bolder" transform="translate(0,-12)"><foreignObject width="121.796875" height="24"><div xmlns="http://www.w3.org/1999/xhtml" style="display: table-cell; white-space: nowrap; line-height: 1.5; max-width: 172px; text-align: center;"><span class="nodeLabel markdown-node-label" style=""><p>運用・サポートT</p></span></div></foreignObject></g></g><g class="members-group text" transform="translate(-60.8984375, 48)"/><g class="methods-group text" transform="translate(-60.8984375, 78)"/></g><g class="node default" id="my-svg-classId-TECHO-2" data-look="classic" transform="translate(78, 348)"><g class="basic label-container outer-path"><path d="M-56.8984375 -24 L56.8984375 -24 L56.8984375 24 L-56.8984375 24" stroke="none" stroke-width="0" fill="#ECECFF" style=""/><path d="M-56.8984375 -24 C-21.277775592660447 -24, 14.342886314679106 -24, 56.8984375 -24 M-56.8984375 -24 C-12.01578435493574 -24, 32.86686879012852 -24, 56.8984375 -24 M56.8984375 -24 C56.8984375 -11.743826785128363, 56.8984375 0.5123464297432747, 56.8984375 24 M56.8984375 -24 C56.8984375 -13.450392709868204, 56.8984375 -2.9007854197364082, 56.8984375 24 M56.8984375 24 C28.99036641832524 24, 1.082295336650482 24, -56.8984375 24 M56.8984375 24 C18.812958069243678 24, -19.272521361512645 24, -56.8984375 24 M-56.8984375 24 C-56.8984375 6.6943594144993845, -56.8984375 -10.611281171001231, -56.8984375 -24 M-56.8984375 24 C-56.8984375 12.507355319834655, -56.8984375 1.0147106396693104, -56.8984375 -24" stroke="#9370DB" stroke-width="1.3" fill="none" stroke-dasharray="0 0" style=""/></g><g class="annotation-group text" transform="translate(0, 0)"/><g class="label-group text" transform="translate(-44.8984375, 0)"><g class="label" style="font-weight: bolder" transform="translate(0,-12)"><foreignObject width="89.796875" height="24"><div xmlns="http://www.w3.org/1999/xhtml" style="display: table-cell; white-space: nowrap; line-height: 1.5; max-width: 140px; text-align: center;"><span class="nodeLabel markdown-node-label" style=""><p>手帳アプリT</p></span></div></foreignObject></g></g><g class="members-group text" transform="translate(-44.8984375, 48)"/><g class="methods-group text" transform="translate(-44.8984375, 78)"/></g><g class="node default" id="my-svg-classId-TECHODB-3" data-look="classic" transform="translate(244.14453125, 348)"><g class="basic label-container outer-path"><path d="M-45.0625 -24 L45.0625 -24 L45.0625 24 L-45.0625 24" stroke="none" stroke-width="0" fill="#ECECFF" style=""/><path d="M-45.0625 -24 C-14.276131867445233 -24, 16.510236265109533 -24, 45.0625 -24 M-45.0625 -24 C-19.64949580716898 -24, 5.763508385662043 -24, 45.0625 -24 M45.0625 -24 C45.0625 -9.203478167179469, 45.0625 5.593043665641062, 45.0625 24 M45.0625 -24 C45.0625 -14.087360428167935, 45.0625 -4.17472085633587, 45.0625 24 M45.0625 24 C12.548361851426066 24, -19.96577629714787 24, -45.0625 24 M45.0625 24 C17.633407834430802 24, -9.795684331138396 24, -45.0625 24 M-45.0625 24 C-45.0625 10.543572169814263, -45.0625 -2.9128556603714735, -45.0625 -24 M-45.0625 24 C-45.0625 9.052842751766239, -45.0625 -5.894314496467523, -45.0625 -24" stroke="#9370DB" stroke-width="1.3" fill="none" stroke-dasharray="0 0" style=""/></g><g class="annotation-group text" transform="translate(0, 0)"/><g class="label-group text" transform="translate(-33.0625, 0)"><g class="label" style="font-weight: bolder" transform="translate(0,-12)"><foreignObject width="66.125" height="24"><div xmlns="http://www.w3.org/1999/xhtml" style="display: table-cell; white-space: nowrap; line-height: 1.5; max-width: 118px; text-align: center;"><span class="nodeLabel markdown-node-label" style=""><p>手帳DB T</p></span></div></foreignObject></g></g><g class="members-group text" transform="translate(-33.0625, 48)"/><g class="methods-group text" transform="translate(-33.0625, 78)"/></g><g class="node default" id="my-svg-classId-YAKUREKI-4" data-look="classic" transform="translate(388.10546875, 348)"><g class="basic label-container outer-path"><path d="M-48.8984375 -24 L48.8984375 -24 L48.8984375 24 L-48.8984375 24" stroke="none" stroke-width="0" fill="#ECECFF" style=""/><path d="M-48.8984375 -24 C-20.898597702244242 -24, 7.101242095511516 -24, 48.8984375 -24 M-48.8984375 -24 C-20.023555234592944 -24, 8.851327030814112 -24, 48.8984375 -24 M48.8984375 -24 C48.8984375 -5.057293254087146, 48.8984375 13.885413491825709, 48.8984375 24 M48.8984375 -24 C48.8984375 -6.590833719409957, 48.8984375 10.818332561180085, 48.8984375 24 M48.8984375 24 C13.543170009090474 24, -21.812097481819052 24, -48.8984375 24 M48.8984375 24 C23.51804774208599 24, -1.8623420158280197 24, -48.8984375 24 M-48.8984375 24 C-48.8984375 11.883852890470047, -48.8984375 -0.23229421905990577, -48.8984375 -24 M-48.8984375 24 C-48.8984375 11.464785321636814, -48.8984375 -1.0704293567263719, -48.8984375 -24" stroke="#9370DB" stroke-width="1.3" fill="none" stroke-dasharray="0 0" style=""/></g><g class="annotation-group text" transform="translate(0, 0)"/><g class="label-group text" transform="translate(-36.8984375, 0)"><g class="label" style="font-weight: bolder" transform="translate(0,-12)"><foreignObject width="73.796875" height="24"><div xmlns="http://www.w3.org/1999/xhtml" style="display: table-cell; white-space: nowrap; line-height: 1.5; max-width: 124px; text-align: center;"><span class="nodeLabel markdown-node-label" style=""><p>薬歴記帳T</p></span></div></foreignObject></g></g><g class="members-group text" transform="translate(-36.8984375, 48)"/><g class="methods-group text" transform="translate(-36.8984375, 78)"/></g><g class="node default" id="my-svg-classId-HAISHIN-5" data-look="classic" transform="translate(535.90234375, 348)"><g class="basic label-container outer-path"><path d="M-48.8984375 -24 L48.8984375 -24 L48.8984375 24 L-48.8984375 24" stroke="none" stroke-width="0" fill="#ECECFF" style=""/><path d="M-48.8984375 -24 C-20.997827963203203 -24, 6.902781573593593 -24, 48.8984375 -24 M-48.8984375 -24 C-25.25882036290801 -24, -1.6192032258160225 -24, 48.8984375 -24 M48.8984375 -24 C48.8984375 -8.782893554400738, 48.8984375 6.4342128911985235, 48.8984375 24 M48.8984375 -24 C48.8984375 -5.595218015291081, 48.8984375 12.809563969417837, 48.8984375 24 M48.8984375 24 C13.483906368775486 24, -21.93062476244903 24, -48.8984375 24 M48.8984375 24 C12.539305716266874 24, -23.819826067466252 24, -48.8984375 24 M-48.8984375 24 C-48.8984375 6.773167415234848, -48.8984375 -10.453665169530304, -48.8984375 -24 M-48.8984375 24 C-48.8984375 8.437388239611082, -48.8984375 -7.125223520777837, -48.8984375 -24" stroke="#9370DB" stroke-width="1.3" fill="none" stroke-dasharray="0 0" style=""/></g><g class="annotation-group text" transform="translate(0, 0)"/><g class="label-group text" transform="translate(-36.8984375, 0)"><g class="label" style="font-weight: bolder" transform="translate(0,-12)"><foreignObject width="73.796875" height="24"><div xmlns="http://www.w3.org/1999/xhtml" style="display: table-cell; white-space: nowrap; line-height: 1.5; max-width: 124px; text-align: center;"><span class="nodeLabel markdown-node-label" style=""><p>配信基盤T</p></span></div></foreignObject></g></g><g class="members-group text" transform="translate(-36.8984375, 48)"/><g class="methods-group text" transform="translate(-36.8984375, 78)"/></g><g class="node default" id="my-svg-classId-YAKKYOKU-6" data-look="classic" transform="translate(528.73828125, 190)"><g class="basic label-container outer-path"><path d="M-145.328125 -84 L145.328125 -84 L145.328125 84 L-145.328125 84" stroke="none" stroke-width="0" fill="#ECECFF" style=""/><path d="M-145.328125 -84 C-32.20444218849839 -84, 80.91924062300322 -84, 145.328125 -84 M-145.328125 -84 C-67.12090048364612 -84, 11.08632403270775 -84, 145.328125 -84 M145.328125 -84 C145.328125 -23.296039135680275, 145.328125 37.40792172863945, 145.328125 84 M145.328125 -84 C145.328125 -30.37145524150135, 145.328125 23.257089516997297, 145.328125 84 M145.328125 84 C68.23608005037538 84, -8.855964899249244 84, -145.328125 84 M145.328125 84 C49.65121152164511 84, -46.02570195670978 84, -145.328125 84 M-145.328125 84 C-145.328125 44.23533490445554, -145.328125 4.470669808911083, -145.328125 -84 M-145.328125 84 C-145.328125 39.271732522388334, -145.328125 -5.456534955223333, -145.328125 -84" stroke="#9370DB" stroke-width="1.3" fill="none" stroke-dasharray="0 0" style=""/></g><g class="annotation-group text" transform="translate(0, -60)"/><g class="label-group text" transform="translate(-52.015625, -60)"><g class="label" style="font-weight: bolder" transform="translate(0,-12)"><foreignObject width="104.03125" height="24"><div xmlns="http://www.w3.org/1999/xhtml" style="display: table-cell; white-space: nowrap; line-height: 1.5; max-width: 154px; text-align: center;"><span class="nodeLabel markdown-node-label" style=""><p>薬局システムT</p></span></div></foreignObject></g></g><g class="members-group text" transform="translate(-133.328125, -12)"><g class="label" style="" transform="translate(0,-12)"><foreignObject width="214.640625" height="24"><div xmlns="http://www.w3.org/1999/xhtml" style="display: table-cell; white-space: nowrap; line-height: 1.5; max-width: 264px; text-align: center;"><span class="nodeLabel markdown-node-label" style=""><p>ディレクション：プロパー1名</p></span></div></foreignObject></g><g class="label" style="" transform="translate(0,12)"><foreignObject width="159.609375" height="24"><div xmlns="http://www.w3.org/1999/xhtml" style="display: table-cell; white-space: nowrap; line-height: 1.5; max-width: 211px; text-align: center;"><span class="nodeLabel markdown-node-label" style=""><p>UI：1〜2名（私含む）</p></span></div></foreignObject></g><g class="label" style="" transform="translate(0,36)"><foreignObject width="63.203125" height="24"><div xmlns="http://www.w3.org/1999/xhtml" style="display: table-cell; white-space: nowrap; line-height: 1.5; max-width: 116px; text-align: center;"><span class="nodeLabel markdown-node-label" style=""><p>API：5名</p></span></div></foreignObject></g></g><g class="methods-group text" transform="translate(-133.328125, 84)"/><g class="divider" style=""><path d="M-145.328125 -36 C-57.20229750465556 -35.99969680394798, 30.923529990688877 -35.99939360789596, 145.328125 -35.999 M-145.328125 -36 C-67.72205641597552 -35.99973299707616, 9.884012168048969 -35.99946599415231, 145.328125 -35.999" stroke="#9370DB" stroke-width="1.3" fill="none" stroke-dasharray="0 0" style=""/></g><g class="divider" style=""></g></g><g class="node default" id="my-svg-classId-USER-7" data-look="classic" transform="translate(68, 446)"><g class="basic label-container outer-path"><path d="M-60 -24 L60 -24 L60 24 L-60 24" stroke="none" stroke-width="0" fill="#ECECFF" style=""/><path d="M-60 -24 C-33.945383319245664 -24, -7.890766638491328 -24, 60 -24 M-60 -24 C-21.13360021298022 -24, 17.73279957403956 -24, 60 -24 M60 -24 C60 -13.750813943048712, 60 -3.501627886097424, 60 24 M60 -24 C60 -9.427911424711873, 60 5.144177150576255, 60 24 M60 24 C20.81272071965566 24, -18.374558560688683 24, -60 24 M60 24 C31.888522276443325 24, 3.7770445528866503 24, -60 24 M-60 24 C-60 12.43318534785715, -60 0.8663706957142985, -60 -24 M-60 24 C-60 13.153762541718828, -60 2.307525083437657, -60 -24" stroke="#9370DB" stroke-width="1.3" fill="none" stroke-dasharray="0 0" style=""/></g><g class="annotation-group text" transform="translate(0, 0)"/><g class="label-group text" transform="translate(-48, 0)"><g class="label" style="font-weight: bolder" transform="translate(0,-12)"><foreignObject width="96" height="24"><div xmlns="http://www.w3.org/1999/xhtml" style="display: table-cell; white-space: nowrap; line-height: 1.5; max-width: 145px; text-align: center;"><span class="nodeLabel markdown-node-label" style=""><p>一般ユーザー</p></span></div></foreignObject></g></g><g class="members-group text" transform="translate(-48, 48)"/><g class="methods-group text" transform="translate(-48, 78)"/></g><g class="node default" id="my-svg-classId-DATALAKE-8" data-look="classic" transform="translate(367.71484375, 446)"><g class="basic label-container outer-path"><path d="M-64.1796875 -24 L64.1796875 -24 L64.1796875 24 L-64.1796875 24" stroke="none" stroke-width="0" fill="#ECECFF" style=""/><path d="M-64.1796875 -24 C-17.982668530149574 -24, 28.21435043970085 -24, 64.1796875 -24 M-64.1796875 -24 C-28.228548931931698 -24, 7.722589636136604 -24, 64.1796875 -24 M64.1796875 -24 C64.1796875 -12.617343416955121, 64.1796875 -1.2346868339102421, 64.1796875 24 M64.1796875 -24 C64.1796875 -14.127598189249444, 64.1796875 -4.255196378498887, 64.1796875 24 M64.1796875 24 C25.679425870071185 24, -12.82083575985763 24, -64.1796875 24 M64.1796875 24 C20.80467930416711 24, -22.57032889166578 24, -64.1796875 24 M-64.1796875 24 C-64.1796875 10.807399906392774, -64.1796875 -2.3852001872144513, -64.1796875 -24 M-64.1796875 24 C-64.1796875 5.572592753759796, -64.1796875 -12.854814492480408, -64.1796875 -24" stroke="#9370DB" stroke-width="1.3" fill="none" stroke-dasharray="0 0" style=""/></g><g class="annotation-group text" transform="translate(0, 0)"/><g class="label-group text" transform="translate(-52.1796875, 0)"><g class="label" style="font-weight: bolder" transform="translate(0,-12)"><foreignObject width="104.359375" height="24"><div xmlns="http://www.w3.org/1999/xhtml" style="display: table-cell; white-space: nowrap; line-height: 1.5; max-width: 154px; text-align: center;"><span class="nodeLabel markdown-node-label" style=""><p>データレイクT</p></span></div></foreignObject></g></g><g class="members-group text" transform="translate(-52.1796875, 48)"/><g class="methods-group text" transform="translate(-52.1796875, 78)"/></g><g class="node default" id="my-svg-classId-PHARM-9" data-look="classic" transform="translate(749.46484375, 348)"><g class="basic label-container outer-path"><path d="M-60 -24 L60 -24 L60 24 L-60 24" stroke="none" stroke-width="0" fill="#ECECFF" style=""/><path d="M-60 -24 C-26.05204546789031 -24, 7.895909064219381 -24, 60 -24 M-60 -24 C-20.42778895211758 -24, 19.14442209576484 -24, 60 -24 M60 -24 C60 -7.600083247584216, 60 8.799833504831568, 60 24 M60 -24 C60 -12.765780559428805, 60 -1.53156111885761, 60 24 M60 24 C19.272924053326626 24, -21.454151893346747 24, -60 24 M60 24 C33.57195131853388 24, 7.143902637067761 24, -60 24 M-60 24 C-60 5.918795548936387, -60 -12.162408902127225, -60 -24 M-60 24 C-60 10.473199050644993, -60 -3.0536018987100135, -60 -24" stroke="#9370DB" stroke-width="1.3" fill="none" stroke-dasharray="0 0" style=""/></g><g class="annotation-group text" transform="translate(0, 0)"/><g class="label-group text" transform="translate(-48, 0)"><g class="label" style="font-weight: bolder" transform="translate(0,-12)"><foreignObject width="96" height="24"><div xmlns="http://www.w3.org/1999/xhtml" style="display: table-cell; white-space: nowrap; line-height: 1.5; max-width: 145px; text-align: center;"><span class="nodeLabel markdown-node-label" style=""><p>薬局ユーザー</p></span></div></foreignObject></g></g><g class="members-group text" transform="translate(-48, 48)"/><g class="methods-group text" transform="translate(-48, 78)"/></g></g></g></g><defs><filter id="my-svg-drop-shadow" height="130%" width="130%"><feDropShadow dx="4" dy="4" stdDeviation="0" flood-opacity="0.06" flood-color="#000000"/></filter></defs><defs><filter id="my-svg-drop-shadow-small" height="150%" width="150%"><feDropShadow dx="2" dy="2" stdDeviation="0" flood-opacity="0.06" flood-color="#000000"/></filter></defs><style>.members-group .nodeLabel p,
.methods-group .nodeLabel p {
  font-size: 11px;
  line-height: 1.35;
}
</style></svg>